<?xml version="1.0" standalone="no"?>
<!DOCTYPE svg PUBLIC "-//W3C//DTD SVG 20010904//EN"
 "http://www.w3.org/TR/2001/REC-SVG-20010904/DTD/svg10.dtd">
<svg version="1.0" xmlns="http://www.w3.org/2000/svg"
 width="640.000000pt" height="640.000000pt" viewBox="0 0 640.000000 640.000000"
 preserveAspectRatio="xMidYMid meet">
<metadata>
Created by potrace 1.16, written by Peter Selinger 2001-2019
</metadata>
<g transform="translate(0.000000,640.000000) scale(0.100000,-0.100000)"
fill="#000000" stroke="none">
<path d="M2930 3405 c-9 -10 36 -14 252 -20 145 -4 274 -5 288 -3 24 3 24 4 5
14 -12 7 -121 14 -277 17 -206 5 -259 3 -268 -8z"/>
<path d="M3780 2778 c1 -95 -4 -220 -9 -278 -13 -129 -14 -293 -2 -286 12 8
20 130 27 442 5 211 4 283 -5 288 -9 6 -11 -35 -11 -166z"/>
<path d="M2597 2807 c-10 -120 -8 -540 2 -555 5 -9 11 0 16 30 4 24 9 37 12
29 8 -20 33 45 32 83 0 17 -4 40 -8 51 l-8 20 -6 -20 c-3 -11 -6 -37 -5 -58 0
-21 -2 -40 -5 -43 -8 -8 -16 207 -13 374 3 175 -7 224 -17 89z"/>
<path d="M2862 2749 c-20 -6 -44 -25 -62 -51 -51 -70 -39 -169 28 -240 14 -16
22 -28 17 -28 -5 0 -22 12 -38 28 l-29 27 15 -30 c22 -43 59 -60 133 -60 60 0
64 2 103 42 23 23 41 47 41 55 -1 8 -5 7 -15 -5 -20 -28 -77 -67 -94 -67 -9 0
-1 8 17 17 120 59 114 242 -10 302 -48 23 -57 24 -106 10z m121 -77 c53 -47
56 -129 7 -182 -32 -34 -65 -38 -110 -15 -81 42 -78 181 4 216 28 11 75 3 99
-19z"/>
<path d="M2893 2660 c-61 -24 -56 -134 7 -160 50 -21 90 16 90 83 0 58 -49 96
-97 77z"/>
<path d="M3420 2720 c-62 -37 -103 -123 -100 -210 2 -70 75 -129 160 -129 40
0 101 27 108 48 3 8 -12 2 -34 -13 -47 -32 -76 -33 -134 -3 -41 20 -90 75 -90
101 0 6 9 -3 19 -20 32 -53 68 -74 124 -74 64 0 107 28 136 87 35 73 23 151
-32 202 -37 34 -110 39 -157 11z m100 -47 c43 -25 64 -80 51 -131 -13 -46 -60
-92 -96 -92 -115 0 -146 173 -41 224 40 20 52 20 86 -1z"/>
<path d="M3420 2618 c-24 -39 -25 -60 -5 -97 24 -48 63 -54 100 -16 19 18 25
35 25 68 0 52 -22 77 -68 77 -26 0 -36 -7 -52 -32z"/>
<path d="M2880 2031 c-43 -12 1 -21 107 -21 102 0 119 -12 50 -36 -53 -19 -85
-44 -108 -86 -10 -21 -23 -38 -28 -38 -7 0 -7 -25 -2 -87 1 -7 8 -13 16 -13 9
0 29 -7 45 -15 22 -12 70 -15 207 -16 152 -1 187 1 238 18 41 14 59 24 56 34
-2 8 -4 24 -5 36 -1 12 -4 25 -8 29 -5 4 -8 15 -8 25 0 11 -5 16 -13 13 -8 -3
-14 2 -15 11 -1 8 -3 21 -4 29 -1 13 -48 40 -128 74 -20 9 -5 11 80 13 l105 2
-135 7 c-159 9 -317 19 -380 24 -25 3 -56 1 -70 -3z"/>
<path d="M3471 1901 c-11 -7 -5 -12 25 -20 44 -12 77 -31 56 -31 -7 0 -10 -5
-6 -11 4 -8 9 -8 17 0 14 14 30 14 22 1 -4 -6 8 -10 29 -10 19 0 37 -6 39 -12
4 -9 8 -9 14 -3 11 14 36 18 28 5 -4 -7 2 -9 17 -7 12 2 17 2 11 0 -17 -6 -16
-11 2 -29 13 -13 17 -13 35 -1 18 13 19 16 5 27 -14 11 -13 14 2 26 24 18 43
17 43 -1 0 -8 5 -15 10 -15 6 0 10 -6 10 -14 0 -9 8 -13 23 -10 13 3 9 -1 -10
-10 -33 -15 -47 -34 -18 -22 21 8 19 -11 -2 -22 -23 -11 -113 -3 -113 10 0 5
-5 6 -10 3 -6 -4 -8 -11 -5 -16 4 -5 0 -10 -7 -11 -7 0 -17 -2 -23 -2 -21 -3
-11 -22 27 -55 54 -46 72 -93 62 -158 -5 -33 -5 -33 -60 -33 -41 0 -63 5 -81
20 -14 11 -22 20 -17 20 4 0 3 5 -4 12 -21 21 -42 -10 -42 -63 0 -45 2 -49 35
-65 20 -9 84 -65 143 -123 97 -97 142 -154 181 -233 7 -16 18 -28 23 -28 5 0
7 -4 4 -8 -3 -5 6 -21 19 -36 14 -16 26 -23 30 -17 3 6 1 11 -5 11 -7 0 -9 8
-5 21 5 16 4 19 -5 14 -8 -5 -11 -4 -7 2 4 6 22 9 42 6 20 -2 35 1 35 7 0 5
-3 9 -7 9 -36 -6 -66 22 -41 37 6 4 8 3 5 -3 -4 -6 2 -13 12 -16 14 -3 18 -1
14 10 -8 20 17 35 34 21 9 -8 15 -4 22 15 5 14 16 28 23 31 10 5 10 7 0 12 -7
3 -19 12 -26 20 -12 11 -15 11 -20 -1 -8 -21 -27 -19 -20 3 5 16 5 16 -6 0
-14 -22 -31 -24 -23 -2 3 9 0 19 -6 24 -10 5 -9 11 3 23 9 8 16 20 16 26 0 6
5 11 10 11 6 0 10 4 10 10 0 5 -7 7 -17 3 -13 -5 -15 -2 -11 15 7 26 -7 30
-17 5 -3 -10 -1 -19 4 -21 6 -2 11 -8 11 -14 0 -6 -7 -8 -15 -4 -10 3 -15 -1
-15 -12 0 -10 -6 -26 -13 -36 -16 -22 -47 -11 -97 33 -19 17 -41 29 -47 26
-15 -5 -47 51 -38 65 3 6 -5 10 -20 10 -35 0 -60 52 -48 100 5 18 14 35 20 37
7 3 29 -23 50 -56 31 -49 42 -59 58 -54 11 4 28 6 38 5 10 0 20 5 23 13 3 8
13 11 22 7 15 -5 15 -4 0 12 -10 9 -22 15 -28 11 -6 -3 -7 1 -4 10 5 12 2 14
-12 8 -18 -7 -18 -6 -1 20 10 16 13 27 6 27 -6 0 -8 7 -5 15 3 9 -1 18 -10 22
-13 5 -13 9 2 32 l17 26 -25 -22 c-32 -30 -42 -29 -22 2 11 17 13 25 4 25 -7
0 -10 7 -6 16 3 8 0 21 -7 27 -16 16 -49 15 -55 -1 -6 -20 -25 -14 -19 7 3 12
-3 27 -14 37 -14 13 -16 20 -8 31 9 10 8 13 -4 13 -8 0 -18 7 -21 16 -8 21 -8
24 5 24 5 0 7 -6 3 -12 -6 -10 -5 -10 7 -1 12 10 17 8 27 -8 7 -11 20 -18 30
-17 10 2 16 -3 14 -10 -2 -10 2 -10 18 -2 13 7 20 7 20 1 0 -6 7 -8 15 -5 8 4
15 1 15 -6 0 -6 4 -9 9 -6 5 4 11 1 13 -5 2 -7 18 -12 34 -13 25 -1 30 -5 27
-21 -4 -19 -4 -19 11 -1 8 10 19 15 25 12 6 -4 27 -9 47 -11 41 -6 78 -28 66
-40 -4 -5 -1 -5 6 -1 13 8 42 -15 42 -35 0 -7 8 -5 22 7 l22 19 -17 -27 c-21
-34 -21 -39 -2 -32 11 5 13 2 9 -10 -3 -9 -2 -16 4 -16 6 0 13 6 15 13 4 10 6
10 6 0 1 -7 -8 -22 -19 -33 -16 -16 -17 -20 -5 -20 8 0 15 5 15 10 0 17 14 11
29 -11 12 -20 10 -24 -16 -45 -22 -18 -24 -23 -10 -24 21 0 22 -23 2 -40 -8
-7 -15 -20 -14 -29 0 -11 3 -10 11 7 6 12 14 22 17 22 6 0 45 -60 46 -70 0 -3
4 -11 8 -17 5 -8 3 -13 -5 -14 -7 -1 -2 -4 12 -8 14 -4 30 -4 36 1 12 9 41
-18 30 -29 -3 -3 -6 -1 -6 6 0 16 -49 9 -60 -9 -5 -8 -7 -17 -4 -22 3 -4 -1
-17 -8 -28 -11 -18 -10 -23 5 -31 11 -6 17 -21 16 -42 0 -18 -3 -26 -6 -19 -2
6 -14 12 -26 12 -19 -1 -20 -2 -7 -13 9 -7 14 -20 12 -29 -4 -23 -22 -23 -22
-1 0 13 -3 14 -12 5 -8 -8 -8 -15 2 -27 8 -10 9 -15 1 -15 -6 0 -11 -5 -11
-12 0 -6 10 -2 23 10 16 15 26 18 40 11 12 -7 17 -6 17 2 0 7 3 9 6 6 12 -11
-17 -36 -34 -30 -15 4 -15 3 -2 -6 8 -6 22 -8 32 -5 9 2 19 0 23 -5 3 -6 0 -9
-7 -6 -7 3 -19 -4 -27 -16 -11 -19 -11 -21 2 -16 9 3 21 -1 28 -9 11 -13 10
-15 -2 -14 -32 5 -42 0 -30 -13 8 -10 6 -19 -10 -35 -26 -28 -34 -28 -35 3 -2
26 11 34 19 13 2 -7 4 9 3 37 -1 56 -16 66 -53 37 -17 -12 -23 -29 -25 -60 -1
-45 -22 -67 -51 -56 -8 3 -18 1 -22 -5 -3 -7 0 -8 9 -5 9 3 16 1 16 -5 0 -6
-6 -11 -14 -11 -8 0 -17 -7 -20 -16 -5 -12 -2 -15 11 -10 9 4 20 1 25 -6 6
-10 10 -10 18 2 6 10 6 16 0 18 -6 2 -3 10 4 18 19 18 32 18 17 0 -8 -10 -9
-16 -1 -21 6 -4 -7 -21 -31 -41 -22 -19 -45 -32 -50 -29 -5 3 -18 1 -30 -6
-17 -9 -23 -8 -30 2 -5 9 -7 -1 -4 -25 4 -32 3 -37 -11 -32 -8 3 -19 6 -24 6
-5 0 -11 8 -13 18 -4 13 -5 11 -6 -5 0 -13 -5 -23 -11 -23 -5 0 -6 8 -3 17 5
12 2 15 -10 10 -11 -4 -17 -1 -17 9 0 8 -5 12 -11 9 -6 -4 -5 2 3 14 7 12 20
21 28 22 10 0 11 2 3 6 -13 5 -5 25 23 63 6 8 14 27 18 42 14 59 -116 153
-209 151 -63 0 -98 -18 -160 -82 -27 -28 -51 -48 -54 -45 -3 3 0 8 6 12 17 11
22 102 5 102 -4 0 -19 -20 -34 -45 -15 -25 -32 -45 -37 -45 -15 0 -38 44 -32
62 11 31 121 108 153 108 24 0 29 3 24 16 -16 41 52 59 102 27 l27 -18 -25 40
c-53 89 -103 157 -154 212 -52 56 -55 57 -79 44 -56 -30 -42 -71 18 -51 40 13
50 8 60 -31 9 -35 -21 -62 -39 -37 -12 16 -15 16 -44 -2 -17 -11 -61 -27 -96
-37 -61 -16 -66 -16 -84 0 -34 31 -30 7 5 -28 20 -20 40 -32 48 -28 8 3 15 0
15 -6 0 -6 -7 -11 -15 -11 -8 0 -15 -6 -15 -13 0 -20 -42 -13 -54 9 -6 10 -17
23 -23 27 -7 4 -13 15 -13 23 0 12 -4 13 -22 3 -22 -12 -22 -12 10 -40 18 -16
32 -33 32 -38 0 -5 6 -12 13 -14 9 -4 8 -8 -3 -16 -13 -9 -13 -11 3 -11 20 0
22 -13 6 -42 l-11 -21 -19 24 -19 24 -1 -25 c-1 -18 -3 -20 -6 -7 -3 10 3 27
13 38 17 19 16 20 -13 49 -30 29 -47 31 -36 4 3 -8 -1 -14 -9 -14 -7 0 -19 -9
-26 -20 -14 -24 -32 -26 -32 -5 0 8 5 15 10 15 6 0 10 9 10 20 0 22 -26 28
-33 8 -3 -10 -7 -10 -20 1 -11 9 -17 10 -17 2 0 -6 4 -11 10 -11 15 0 32 -38
20 -45 -12 -8 -72 53 -65 65 3 4 -13 6 -35 3 -35 -5 -40 -3 -40 15 0 12 -9 22
-22 25 -32 9 -35 0 -8 -28 17 -19 21 -28 13 -36 -6 -6 -9 -18 -6 -25 3 -8 0
-14 -5 -14 -6 0 -13 10 -15 23 -2 12 -3 7 -1 -10 1 -18 -1 -33 -6 -33 -24 0
-40 15 -40 37 0 22 -4 24 -37 21 -21 -2 -37 -7 -37 -13 1 -5 4 -30 8 -54 6
-39 5 -43 -9 -31 -8 7 -15 20 -15 30 0 10 -9 20 -20 23 -17 4 -20 14 -20 57 0
28 -4 59 -9 69 -18 33 -14 144 7 236 4 17 6 54 4 83 -4 64 -24 79 -56 40 -27
-33 -90 -46 -104 -22 -11 20 -36 9 -28 -13 3 -8 1 -11 -4 -8 -6 3 -13 24 -16
46 -5 28 -11 39 -20 35 -20 -8 -17 0 9 27 27 29 57 66 57 71 0 10 -101 37
-155 43 -85 8 -144 -10 -157 -47 -6 -18 -29 -41 -59 -61 -27 -17 -49 -34 -49
-38 0 -3 -34 -24 -75 -45 -42 -21 -88 -54 -104 -72 -16 -18 -32 -30 -35 -27
-3 4 -6 1 -6 -5 0 -6 14 -27 30 -45 35 -41 36 -44 11 -65 -10 -10 -24 -39 -30
-65 -8 -35 -25 -62 -56 -95 -25 -26 -45 -49 -45 -53 0 -3 -45 -45 -100 -93
-64 -57 -105 -101 -116 -126 -10 -22 -21 -37 -26 -34 -4 3 -8 -2 -8 -10 0 -8
19 -28 43 -44 23 -16 51 -40 62 -52 11 -12 32 -28 48 -36 31 -17 37 -15 117
46 48 36 59 40 90 34 19 -3 59 -7 88 -9 32 -1 57 -7 62 -15 13 -22 7 -115 -7
-112 -7 1 -13 -4 -13 -12 0 -8 -13 -24 -29 -35 l-29 -21 -50 31 c-28 17 -58
29 -69 26 -15 -4 -15 -5 4 -6 16 -1 24 -12 35 -43 13 -42 14 -43 53 -40 22 2
50 10 63 18 12 8 34 13 49 12 22 -3 28 2 35 29 11 42 18 45 90 45 80 0 86 -7
63 -81 -28 -95 -83 -137 -147 -113 -25 9 -28 8 -28 -9 0 -10 10 -29 21 -40 18
-18 29 -21 72 -16 60 8 81 25 103 86 10 25 20 49 23 52 3 4 37 3 75 -3 66 -9
70 -11 125 -69 51 -54 64 -61 111 -61 3 -1 17 2 33 6 23 5 27 3 28 -16 0 -13
5 -32 10 -43 9 -19 9 -18 5 3 -5 25 6 29 24 8 6 -8 19 -12 27 -9 14 5 13 8 -3
20 -10 7 -14 13 -10 13 5 0 -2 9 -15 19 l-24 19 29 12 c17 6 49 29 73 50 26
25 52 40 68 40 27 0 27 -1 5 103 -8 37 -8 38 11 22 11 -11 28 -16 44 -13 17 4
25 1 25 -9 0 -10 5 -11 16 -5 18 10 51 5 72 -11 9 -7 17 -4 27 9 8 10 15 24
15 29 0 6 32 10 76 10 68 0 76 2 90 23 19 29 10 41 -14 19 -23 -21 -56 -22
-76 -1 -23 22 -20 86 5 118 39 50 99 22 99 -46 0 -23 6 -38 15 -42 10 -4 14
-14 11 -31 -4 -23 3 -30 27 -26 10 1 9 -78 -2 -116 -8 -27 -5 -38 12 -65 32
-48 117 -88 186 -88 l56 0 107 110 108 111 62 -16 c69 -18 102 -14 168 20 79
40 170 51 481 59 75 2 141 6 147 10 6 3 8 24 5 49 -8 61 -69 318 -99 414 -17
55 -23 92 -19 115 4 19 -1 64 -10 103 -9 39 -23 111 -30 160 -8 50 -19 107
-25 129 -13 45 -8 45 -150 -5 -94 -33 -98 -34 -239 -31 l-143 3 5 37 c3 20 9
72 13 115 l7 77 -154 -1 c-85 -1 -185 4 -224 10 -111 18 -189 23 -204 12z
m-1058 -241 c-3 -11 -9 -18 -12 -15 -4 2 -8 -2 -8 -10 0 -8 4 -12 8 -9 4 2 10
-2 12 -8 3 -7 6 -3 6 10 1 12 5 22 10 22 10 0 7 -32 -3 -48 -3 -5 -19 -7 -35
-6 -30 2 -39 -5 -24 -20 11 -10 12 -37 2 -30 -5 3 -9 -2 -9 -11 0 -9 -4 -14
-10 -10 -5 3 -19 -4 -31 -16 -17 -17 -19 -23 -8 -31 11 -7 9 -8 -4 -4 -13 4
-20 0 -24 -14 -3 -11 -13 -20 -23 -20 -10 0 -20 -7 -23 -14 -4 -10 -1 -13 9
-9 25 9 15 -11 -11 -24 -17 -7 -36 -8 -55 -3 -17 5 -30 6 -30 4 0 -3 -6 -2
-12 3 -7 4 -23 6 -34 5 -22 -3 -39 22 -28 40 4 6 0 14 -7 19 -17 10 1 26 71
61 24 13 53 31 64 41 35 30 52 17 29 -22 -11 -19 -7 -17 16 9 19 22 31 30 31
20 1 -9 5 -6 10 8 6 13 18 22 32 22 21 0 21 0 2 15 -10 8 -14 15 -9 14 37 -5
67 2 62 15 -6 15 11 36 29 36 7 0 10 -8 7 -20z m113 -302 c36 -21 37 -23 14
-28 -25 -6 -42 -33 -19 -29 8 1 25 -1 39 -5 14 -4 39 -8 55 -10 17 -2 31 -4
33 -5 3 -1 -45 -67 -69 -94 -16 -18 -17 -18 -35 1 -11 10 -27 22 -37 25 -15 6
-17 13 -12 37 8 34 -4 40 -23 10 -17 -27 -25 -25 -41 10 -11 25 -11 34 0 48
19 24 52 62 55 62 2 0 20 -10 40 -22z m1148 -139 c31 -24 36 -73 9 -84 -10 -3
-19 -3 -20 2 -14 38 -53 38 -53 -1 -1 -30 -120 -108 -144 -94 -13 7 -16 17
-11 39 4 17 2 29 -3 29 -6 0 -12 -8 -15 -17 -3 -14 -6 -11 -11 9 -12 40 -3 54
50 77 55 25 87 27 104 6 12 -14 15 -14 31 1 10 9 25 14 34 11 8 -4 15 -2 15 3
0 16 -19 21 -41 9 -17 -9 -23 -8 -30 2 -20 32 46 39 85 8z m-1220 -100 c-15
-31 -15 -33 1 -45 14 -11 24 -11 53 1 19 8 52 15 74 15 70 0 101 -21 189 -126
9 -10 27 -28 41 -39 14 -11 33 -33 43 -48 10 -16 28 -33 39 -37 17 -7 18 -9 4
-9 -10 -1 -18 -7 -18 -13 0 -7 -8 1 -18 17 -22 36 -50 60 -59 52 -7 -8 58
-137 69 -137 4 0 8 -7 8 -15 0 -8 -4 -15 -10 -15 -5 0 -10 4 -10 8 0 10 -100
164 -142 219 -55 72 -125 84 -221 40 -49 -22 -159 -107 -139 -107 13 0 42 -90
42 -129 0 -58 -5 -61 -92 -61 l-79 0 6 38 c3 20 8 48 11 62 4 19 2 22 -6 10
-6 -10 -13 -11 -17 -5 -11 15 -134 45 -182 45 -23 0 -41 4 -41 9 0 4 11 25 25
45 14 20 22 44 19 53 -4 13 -3 14 3 5 7 -10 16 -6 39 15 17 16 61 56 98 91
l68 63 65 -2 c61 -2 65 -1 83 27 24 35 63 49 68 23 2 -10 -4 -32 -14 -50z
m-381 22 c5 -1 5 -6 2 -11 -4 -6 -2 -17 5 -25 7 -9 8 -15 0 -20 -5 -3 -10 0
-11 7 0 7 -5 0 -11 -17 -6 -16 -16 -33 -22 -37 -7 -5 -4 -8 7 -8 21 0 23 -16
2 -24 -8 -3 -15 -11 -15 -18 0 -9 3 -9 12 0 18 18 37 14 31 -6 -3 -14 -13 -18
-38 -17 -18 0 -33 -3 -32 -8 1 -5 -4 -12 -10 -14 -7 -3 -13 3 -13 12 0 14 -3
15 -15 5 -8 -7 -15 -18 -15 -24 0 -6 5 -4 10 4 8 13 10 12 10 -2 0 -19 -8 -22
-34 -12 -17 7 -22 30 -7 36 5 2 2 10 -7 18 -14 13 -15 12 -9 -3 4 -11 1 -20
-8 -24 -13 -4 -13 -8 -3 -21 11 -13 9 -14 -12 -9 -14 4 -19 4 -12 1 17 -8 15
-24 -3 -24 -8 0 -15 -4 -15 -10 0 -5 4 -10 9 -10 6 0 13 5 16 10 8 12 25 13
25 2 0 -14 -54 -35 -58 -23 -2 7 -9 8 -22 1 -13 -7 -17 -16 -13 -28 6 -14 4
-15 -9 -5 -8 7 -18 10 -21 6 -4 -3 -7 -1 -7 6 0 8 -6 11 -16 7 -15 -6 -15 -4
1 20 16 25 16 26 -4 19 -17 -5 -21 -2 -21 18 0 23 23 43 44 38 5 -1 6 6 2 15
-5 12 -2 15 10 10 12 -4 15 -2 10 9 -3 8 0 15 7 15 7 0 18 9 25 21 8 12 21 19
35 17 27 -3 47 8 47 28 0 9 -5 12 -12 8 -7 -4 -4 2 7 13 23 24 42 14 27 -14
-7 -12 -7 -25 -1 -34 8 -13 14 -5 10 15 -1 5 6 3 15 -5 16 -13 16 -12 6 8 -12
21 -7 53 7 53 4 0 13 -6 20 -12 11 -11 13 -7 8 18 -6 33 -2 34 66 25z"/>
<path d="M3039 1661 l-24 -19 21 -24 c29 -32 56 -78 47 -78 -5 0 -22 17 -40
37 -55 67 -44 30 22 -72 42 -64 63 -106 59 -117 -3 -10 -1 -18 5 -18 15 0 44
-67 37 -86 -5 -13 -17 -16 -66 -12 -33 2 -60 0 -60 -4 0 -5 10 -22 22 -38 17
-24 19 -32 8 -45 -25 -30 6 -14 34 17 27 31 29 32 42 13 8 -10 14 -27 14 -38
0 -23 19 -18 34 8 17 30 33 45 49 45 8 0 20 7 28 16 7 8 21 13 31 11 22 -6 23
6 2 27 -23 23 -10 33 49 41 86 11 86 11 73 48 -6 18 -21 45 -33 61 -13 16 -23
33 -23 39 0 14 -154 164 -193 187 -42 26 -107 26 -138 1z"/>
<path d="M1592 526 c2 -13 12 -22 26 -24 13 -2 32 -12 43 -23 11 -11 33 -19
53 -19 19 0 38 -4 41 -10 3 -5 33 -10 67 -10 61 0 130 28 198 80 33 25 17 38
-23 19 -121 -59 -174 -70 -200 -41 -15 17 -24 18 -62 10 -38 -8 -47 -7 -65 10
-12 11 -35 22 -51 24 -26 4 -30 2 -27 -16z"/>
</g>
</svg>
